solid OpenSCAD_Model
  facet normal -1 0 -0
    outer loop
      vertex -38.75 5.25 5.51
      vertex -38.75 -30.25 13.5
      vertex -38.75 30.25 13.5
    endloop
  endfacet
  facet normal -1 0 -0
    outer loop
      vertex -38.75 -30.25 -13.5
      vertex -38.75 -30.25 13.5
      vertex -38.75 -24.45 5.51
    endloop
  endfacet
  facet normal -1 0 0
    outer loop
      vertex -38.75 5.25 -6.49
      vertex -38.75 -13.95 5.51
      vertex -38.75 5.25 5.51
    endloop
  endfacet
  facet normal -1 0 0
    outer loop
      vertex -38.75 -30.25 -13.5
      vertex -38.75 -24.45 5.51
      vertex -38.75 -24.45 -6.49
    endloop
  endfacet
  facet normal -1 -0 0
    outer loop
      vertex -38.75 -30.25 -13.5
      vertex -38.75 -24.45 -6.49
      vertex -38.75 30.25 -13.5
    endloop
  endfacet
  facet normal -1 0 0
    outer loop
      vertex -38.75 -24.45 -6.49
      vertex -38.75 -13.95 -6.49
      vertex -38.75 30.25 -13.5
    endloop
  endfacet
  facet normal -1 -0 -0
    outer loop
      vertex -38.75 -24.45 5.51
      vertex -38.75 -30.25 13.5
      vertex -38.75 -13.95 5.51
    endloop
  endfacet
  facet normal -1 -0 -0
    outer loop
      vertex -38.75 -13.95 5.51
      vertex -38.75 -30.25 13.5
      vertex -38.75 5.25 5.51
    endloop
  endfacet
  facet normal -1 0 -0
    outer loop
      vertex -38.75 19.25 5.51
      vertex -38.75 5.25 5.51
      vertex -38.75 30.25 13.5
    endloop
  endfacet
  facet normal -1 0 0
    outer loop
      vertex -38.75 19.25 -6.49
      vertex -38.75 30.25 -13.5
      vertex -38.75 5.25 -6.49
    endloop
  endfacet
  facet normal -1 0 0
    outer loop
      vertex -38.75 -13.95 -6.49
      vertex -38.75 5.25 -6.49
      vertex -38.75 30.25 -13.5
    endloop
  endfacet
  facet normal -1 0 0
    outer loop
      vertex -38.75 30.25 -13.5
      vertex -38.75 19.25 5.51
      vertex -38.75 30.25 13.5
    endloop
  endfacet
  facet normal -1 0 0
    outer loop
      vertex -38.75 19.25 5.51
      vertex -38.75 30.25 -13.5
      vertex -38.75 19.25 -6.49
    endloop
  endfacet
  facet normal -1 0 0
    outer loop
      vertex -38.75 -13.95 5.51
      vertex -38.75 5.25 -6.49
      vertex -38.75 -13.95 -6.49
    endloop
  endfacet
  facet normal 0 -1 0
    outer loop
      vertex -35 -30.25 -11
      vertex -38.75 -30.25 -13.5
      vertex 38.75 -30.25 -13.5
    endloop
  endfacet
  facet normal 0 -1 0
    outer loop
      vertex -25 -30.25 -11
      vertex -35 -30.25 -11
      vertex 38.75 -30.25 -13.5
    endloop
  endfacet
  facet normal 0 -1 0
    outer loop
      vertex -38.75 -30.25 13.5
      vertex -38.75 -30.25 -13.5
      vertex -35 -30.25 -11
    endloop
  endfacet
  facet normal 0 -1 0
    outer loop
      vertex 35 -30.25 -1
      vertex 35 -30.25 -11
      vertex 38.75 -30.25 -13.5
    endloop
  endfacet
  facet normal 0 -1 0
    outer loop
      vertex -38.75 -30.25 13.5
      vertex -35 -30.25 -11
      vertex -35 -30.25 -1
    endloop
  endfacet
  facet normal 0 -1 0
    outer loop
      vertex 25 -30.25 -11
      vertex 25 -30.25 -1
      vertex -38.75 -30.25 13.5
    endloop
  endfacet
  facet normal 0 -1 0
    outer loop
      vertex -38.75 -30.25 13.5
      vertex -35 -30.25 -1
      vertex -25 -30.25 -1
    endloop
  endfacet
  facet normal 0 -1 0
    outer loop
      vertex 25 -30.25 -11
      vertex -38.75 -30.25 13.5
      vertex -25 -30.25 -1
    endloop
  endfacet
  facet normal 0 -1 0
    outer loop
      vertex 35 -30.25 -11
      vertex 25 -30.25 -11
      vertex 38.75 -30.25 -13.5
    endloop
  endfacet
  facet normal 0 -1 0
    outer loop
      vertex 38.75 -30.25 13.5
      vertex -38.75 -30.25 13.5
      vertex 25 -30.25 -1
    endloop
  endfacet
  facet normal 0 -1 0
    outer loop
      vertex 38.75 -30.25 13.5
      vertex 35 -30.25 -1
      vertex 38.75 -30.25 -13.5
    endloop
  endfacet
  facet normal 0 -1 0
    outer loop
      vertex 38.75 -30.25 13.5
      vertex 25 -30.25 -1
      vertex 35 -30.25 -1
    endloop
  endfacet
  facet normal 0 -1 0
    outer loop
      vertex 25 -30.25 -11
      vertex -25 -30.25 -11
      vertex 38.75 -30.25 -13.5
    endloop
  endfacet
  facet normal 0 -1 0
    outer loop
      vertex -25 -30.25 -1
      vertex -25 -30.25 -11
      vertex 25 -30.25 -11
    endloop
  endfacet
  facet normal -0 -0 -1
    outer loop
      vertex -38.75 -30.25 -13.5
      vertex -38.75 30.25 -13.5
      vertex 38.75 -30.25 -13.5
    endloop
  endfacet
  facet normal 0 0 -1
    outer loop
      vertex 38.75 -30.25 -13.5
      vertex -38.75 30.25 -13.5
      vertex 38.75 30.25 -13.5
    endloop
  endfacet
  facet normal 0 1 0
    outer loop
      vertex -38.75 30.25 -13.5
      vertex -38.75 30.25 13.5
      vertex 38.75 30.25 -13.5
    endloop
  endfacet
  facet normal 0 1 0
    outer loop
      vertex 38.75 30.25 -13.5
      vertex -38.75 30.25 13.5
      vertex 38.75 30.25 13.5
    endloop
  endfacet
  facet normal 0 -0 1
    outer loop
      vertex -36.75 -28.25 13.5
      vertex -38.75 -30.25 13.5
      vertex 38.75 -30.25 13.5
    endloop
  endfacet
  facet normal 0 -0 1
    outer loop
      vertex -38.75 30.25 13.5
      vertex -38.75 -30.25 13.5
      vertex -36.75 -28.25 13.5
    endloop
  endfacet
  facet normal 0 0 1
    outer loop
      vertex -36.75 28.25 13.5
      vertex 36.75 28.25 13.5
      vertex -38.75 30.25 13.5
    endloop
  endfacet
  facet normal 0 0 1
    outer loop
      vertex -38.75 30.25 13.5
      vertex -36.75 -28.25 13.5
      vertex -36.75 28.25 13.5
    endloop
  endfacet
  facet normal 0 0 1
    outer loop
      vertex 38.75 30.25 13.5
      vertex 36.75 28.25 13.5
      vertex 38.75 -30.25 13.5
    endloop
  endfacet
  facet normal 0 0 1
    outer loop
      vertex 38.75 30.25 13.5
      vertex -38.75 30.25 13.5
      vertex 36.75 28.25 13.5
    endloop
  endfacet
  facet normal 0 -0 1
    outer loop
      vertex 36.75 28.25 13.5
      vertex 36.75 -28.25 13.5
      vertex 38.75 -30.25 13.5
    endloop
  endfacet
  facet normal 0 -0 1
    outer loop
      vertex 36.75 -28.25 13.5
      vertex -36.75 -28.25 13.5
      vertex 38.75 -30.25 13.5
    endloop
  endfacet
  facet normal 0 1 0
    outer loop
      vertex -36.75 -24.45 5.51
      vertex -36.75 -24.45 -6.49
      vertex -38.75 -24.45 5.51
    endloop
  endfacet
  facet normal 0 1 -0
    outer loop
      vertex -38.75 -24.45 5.51
      vertex -36.75 -24.45 -6.49
      vertex -38.75 -24.45 -6.49
    endloop
  endfacet
  facet normal 0 0 -1
    outer loop
      vertex -36.75 -13.95 5.51
      vertex -36.75 -24.45 5.51
      vertex -38.75 -13.95 5.51
    endloop
  endfacet
  facet normal 0 0 -1
    outer loop
      vertex -38.75 -13.95 5.51
      vertex -36.75 -24.45 5.51
      vertex -38.75 -24.45 5.51
    endloop
  endfacet
  facet normal 0 -1 0
    outer loop
      vertex -36.75 -13.95 -6.49
      vertex -36.75 -13.95 5.51
      vertex -38.75 -13.95 5.51
    endloop
  endfacet
  facet normal -0 -1 -0
    outer loop
      vertex -38.75 -13.95 -6.49
      vertex -36.75 -13.95 -6.49
      vertex -38.75 -13.95 5.51
    endloop
  endfacet
  facet normal 0 0 1
    outer loop
      vertex -36.75 -24.45 -6.49
      vertex -36.75 -13.95 -6.49
      vertex -38.75 -13.95 -6.49
    endloop
  endfacet
  facet normal 0 0 1
    outer loop
      vertex -38.75 -24.45 -6.49
      vertex -36.75 -24.45 -6.49
      vertex -38.75 -13.95 -6.49
    endloop
  endfacet
  facet normal 0 0 -1
    outer loop
      vertex -36.75 19.25 5.51
      vertex -36.75 5.25 5.51
      vertex -38.75 19.25 5.51
    endloop
  endfacet
  facet normal 0 0 -1
    outer loop
      vertex -38.75 19.25 5.51
      vertex -36.75 5.25 5.51
      vertex -38.75 5.25 5.51
    endloop
  endfacet
  facet normal 0 1 0
    outer loop
      vertex -36.75 5.25 5.51
      vertex -36.75 5.25 -6.49
      vertex -38.75 5.25 5.51
    endloop
  endfacet
  facet normal 0 1 -0
    outer loop
      vertex -38.75 5.25 5.51
      vertex -36.75 5.25 -6.49
      vertex -38.75 5.25 -6.49
    endloop
  endfacet
  facet normal 0 -1 0
    outer loop
      vertex -36.75 19.25 -6.49
      vertex -36.75 19.25 5.51
      vertex -38.75 19.25 5.51
    endloop
  endfacet
  facet normal -0 -1 -0
    outer loop
      vertex -38.75 19.25 -6.49
      vertex -36.75 19.25 -6.49
      vertex -38.75 19.25 5.51
    endloop
  endfacet
  facet normal 0 0 1
    outer loop
      vertex -36.75 5.25 -6.49
      vertex -36.75 19.25 -6.49
      vertex -38.75 19.25 -6.49
    endloop
  endfacet
  facet normal 0 0 1
    outer loop
      vertex -38.75 5.25 -6.49
      vertex -36.75 5.25 -6.49
      vertex -38.75 19.25 -6.49
    endloop
  endfacet
  facet normal 1 0 -0
    outer loop
      vertex 38.75 -30.25 13.5
      vertex 38.75 -30.25 -13.5
      vertex 38.75 30.25 -13.5
    endloop
  endfacet
  facet normal 1 0 0
    outer loop
      vertex 38.75 30.25 13.5
      vertex 38.75 -30.25 13.5
      vertex 38.75 30.25 -13.5
    endloop
  endfacet
  facet normal -1 -0 -0
    outer loop
      vertex -35 -40 -13.5
      vertex -35 -40 -1
      vertex -35 -39.5 -13.5
    endloop
  endfacet
  facet normal -1 0 -0
    outer loop
      vertex -35 -34.4733 -3.35188
      vertex -35 -40 -1
      vertex -35 -30.25 -1
    endloop
  endfacet
  facet normal -1 -0 0
    outer loop
      vertex -35 -32.5055 -7.03324
      vertex -35 -30.25 -1
      vertex -35 -30.25 -11
    endloop
  endfacet
  facet normal -1 0 0
    outer loop
      vertex -35 -39.5 -13.5
      vertex -35 -40 -1
      vertex -35 -39.5 -11
    endloop
  endfacet
  facet normal -1 0 -0
    outer loop
      vertex -35 -39.5 -11
      vertex -35 -40 -1
      vertex -35 -37.6481 -5.47326
    endloop
  endfacet
  facet normal -1 0 0
    outer loop
      vertex -35 -39.5 -11
      vertex -35 -37.6481 -5.47326
      vertex -35 -37.7 -6
    endloop
  endfacet
  facet normal -1 0 0
    outer loop
      vertex -35 -39.5 -11
      vertex -35 -37.7 -6
      vertex -35 -37.6481 -6.52674
    endloop
  endfacet
  facet normal -1 0 0
    outer loop
      vertex -35 -39.5 -11
      vertex -35 -37.6481 -6.52674
      vertex -35 -37.4945 -7.03324
    endloop
  endfacet
  facet normal -1 0 0
    outer loop
      vertex -35 -39.5 -11
      vertex -35 -37.4945 -7.03324
      vertex -35 -37.245 -7.50004
    endloop
  endfacet
  facet normal -1 0 0
    outer loop
      vertex -35 -39.5 -11
      vertex -35 -37.245 -7.50004
      vertex -35 -36.9092 -7.90919
    endloop
  endfacet
  facet normal -1 0 0
    outer loop
      vertex -35 -36.5 -8.24497
      vertex -35 -39.5 -11
      vertex -35 -36.9092 -7.90919
    endloop
  endfacet
  facet normal -1 -0 0
    outer loop
      vertex -35 -33.0908 -4.09081
      vertex -35 -30.25 -1
      vertex -35 -32.755 -4.49996
    endloop
  endfacet
  facet normal -1 0 0
    outer loop
      vertex -35 -35.5267 -8.64812
      vertex -35 -35 -8.7
      vertex -35 -30.25 -11
    endloop
  endfacet
  facet normal -1 -0 0
    outer loop
      vertex -35 -32.755 -4.49996
      vertex -35 -30.25 -1
      vertex -35 -32.5055 -4.96675
    endloop
  endfacet
  facet normal -1 -0 0
    outer loop
      vertex -35 -35 -8.7
      vertex -35 -34.4733 -8.64812
      vertex -35 -30.25 -11
    endloop
  endfacet
  facet normal -1 -0 0
    outer loop
      vertex -35 -34.4733 -8.64812
      vertex -35 -33.9668 -8.49447
      vertex -35 -30.25 -11
    endloop
  endfacet
  facet normal -1 -0 0
    outer loop
      vertex -35 -32.5055 -4.96675
      vertex -35 -30.25 -1
      vertex -35 -32.3519 -5.47326
    endloop
  endfacet
  facet normal -1 -0 0
    outer loop
      vertex -35 -33.9668 -8.49447
      vertex -35 -33.5 -8.24497
      vertex -35 -30.25 -11
    endloop
  endfacet
  facet normal -1 -0 0
    outer loop
      vertex -35 -33.5 -8.24497
      vertex -35 -33.0908 -7.90919
      vertex -35 -30.25 -11
    endloop
  endfacet
  facet normal -1 -0 0
    outer loop
      vertex -35 -32.3519 -5.47326
      vertex -35 -30.25 -1
      vertex -35 -32.3 -6
    endloop
  endfacet
  facet normal -1 -0 0
    outer loop
      vertex -35 -33.0908 -7.90919
      vertex -35 -32.755 -7.50004
      vertex -35 -30.25 -11
    endloop
  endfacet
  facet normal -1 -0 0
    outer loop
      vertex -35 -32.3519 -6.52674
      vertex -35 -30.25 -1
      vertex -35 -32.5055 -7.03324
    endloop
  endfacet
  facet normal -1 -0 0
    outer loop
      vertex -35 -32.755 -7.50004
      vertex -35 -32.5055 -7.03324
      vertex -35 -30.25 -11
    endloop
  endfacet
  facet normal -1 -0 0
    outer loop
      vertex -35 -32.3 -6
      vertex -35 -30.25 -1
      vertex -35 -32.3519 -6.52674
    endloop
  endfacet
  facet normal -1 -0 0
    outer loop
      vertex -35 -33.5 -3.75503
      vertex -35 -30.25 -1
      vertex -35 -33.0908 -4.09081
    endloop
  endfacet
  facet normal -1 -0 0
    outer loop
      vertex -35 -33.9668 -3.50552
      vertex -35 -30.25 -1
      vertex -35 -33.5 -3.75503
    endloop
  endfacet
  facet normal -1 -0 0
    outer loop
      vertex -35 -34.4733 -3.35188
      vertex -35 -30.25 -1
      vertex -35 -33.9668 -3.50552
    endloop
  endfacet
  facet normal -1 -0 -0
    outer loop
      vertex -35 -35 -3.3
      vertex -35 -40 -1
      vertex -35 -34.4733 -3.35188
    endloop
  endfacet
  facet normal -1 0 -0
    outer loop
      vertex -35 -35.5267 -3.35188
      vertex -35 -40 -1
      vertex -35 -35 -3.3
    endloop
  endfacet
  facet normal -1 0 -0
    outer loop
      vertex -35 -36.0332 -3.50552
      vertex -35 -40 -1
      vertex -35 -35.5267 -3.35188
    endloop
  endfacet
  facet normal -1 0 -0
    outer loop
      vertex -35 -36.5 -3.75503
      vertex -35 -40 -1
      vertex -35 -36.0332 -3.50552
    endloop
  endfacet
  facet normal -1 0 -0
    outer loop
      vertex -35 -36.9092 -4.09081
      vertex -35 -40 -1
      vertex -35 -36.5 -3.75503
    endloop
  endfacet
  facet normal -1 0 -0
    outer loop
      vertex -35 -37.245 -4.49996
      vertex -35 -40 -1
      vertex -35 -36.9092 -4.09081
    endloop
  endfacet
  facet normal -1 0 -0
    outer loop
      vertex -35 -37.4945 -4.96675
      vertex -35 -40 -1
      vertex -35 -37.245 -4.49996
    endloop
  endfacet
  facet normal -1 0 -0
    outer loop
      vertex -35 -37.6481 -5.47326
      vertex -35 -40 -1
      vertex -35 -37.4945 -4.96675
    endloop
  endfacet
  facet normal -1 0 0
    outer loop
      vertex -35 -39.5 -11
      vertex -35 -36.5 -8.24497
      vertex -35 -36.0332 -8.49447
    endloop
  endfacet
  facet normal -1 0 0
    outer loop
      vertex -35 -39.5 -11
      vertex -35 -36.0332 -8.49447
      vertex -35 -35.5267 -8.64812
    endloop
  endfacet
  facet normal -1 -0 0
    outer loop
      vertex -35 -39.5 -11
      vertex -35 -35.5267 -8.64812
      vertex -35 -30.25 -11
    endloop
  endfacet
  facet normal -0 -0 -1
    outer loop
      vertex -35 -39.5 -11
      vertex -35 -30.25 -11
      vertex -25 -39.5 -11
    endloop
  endfacet
  facet normal 0 0 -1
    outer loop
      vertex -25 -39.5 -11
      vertex -35 -30.25 -11
      vertex -25 -30.25 -11
    endloop
  endfacet
  facet normal 1 0 -0
    outer loop
      vertex -25 -40 -1
      vertex -25 -40 -13.5
      vertex -25 -39.5 -13.5
    endloop
  endfacet
  facet normal 1 -0 0
    outer loop
      vertex -25 -37.7 -6
      vertex -25 -40 -1
      vertex -25 -39.5 -11
    endloop
  endfacet
  facet normal 1 -0 0
    outer loop
      vertex -25 -39.5 -11
      vertex -25 -40 -1
      vertex -25 -39.5 -13.5
    endloop
  endfacet
  facet normal 1 -0 0
    outer loop
      vertex -25 -37.6481 -6.52674
      vertex -25 -37.7 -6
      vertex -25 -39.5 -11
    endloop
  endfacet
  facet normal 1 -0 0
    outer loop
      vertex -25 -37.6481 -5.47326
      vertex -25 -40 -1
      vertex -25 -37.7 -6
    endloop
  endfacet
  facet normal 1 -0 0
    outer loop
      vertex -25 -37.4945 -4.96675
      vertex -25 -40 -1
      vertex -25 -37.6481 -5.47326
    endloop
  endfacet
  facet normal 1 0 -0
    outer loop
      vertex -25 -33.9668 -8.49447
      vertex -25 -34.4733 -8.64812
      vertex -25 -30.25 -11
    endloop
  endfacet
  facet normal 1 -0 0
    outer loop
      vertex -25 -37.245 -4.49996
      vertex -25 -40 -1
      vertex -25 -37.4945 -4.96675
    endloop
  endfacet
  facet normal 1 0 0
    outer loop
      vertex -25 -36.0332 -3.50552
      vertex -25 -35.5267 -3.35188
      vertex -25 -30.25 -1
    endloop
  endfacet
  facet normal 1 0 -0
    outer loop
      vertex -25 -33.5 -8.24497
      vertex -25 -33.9668 -8.49447
      vertex -25 -30.25 -11
    endloop
  endfacet
  facet normal 1 -0 0
    outer loop
      vertex -25 -36.5 -3.75503
      vertex -25 -40 -1
      vertex -25 -36.9092 -4.09081
    endloop
  endfacet
  facet normal 1 -0 0
    outer loop
      vertex -25 -36.0332 -3.50552
      vertex -25 -40 -1
      vertex -25 -36.5 -3.75503
    endloop
  endfacet
  facet normal 1 0 0
    outer loop
      vertex -25 -35.5267 -3.35188
      vertex -25 -35 -3.3
      vertex -25 -30.25 -1
    endloop
  endfacet
  facet normal 1 0 0
    outer loop
      vertex -25 -30.25 -1
      vertex -25 -40 -1
      vertex -25 -36.0332 -3.50552
    endloop
  endfacet
  facet normal 1 0 0
    outer loop
      vertex -25 -32.3519 -5.47326
      vertex -25 -32.3 -6
      vertex -25 -30.25 -11
    endloop
  endfacet
  facet normal 1 0 -0
    outer loop
      vertex -25 -32.5055 -7.03324
      vertex -25 -32.755 -7.50004
      vertex -25 -30.25 -11
    endloop
  endfacet
  facet normal 1 0 0
    outer loop
      vertex -25 -30.25 -1
      vertex -25 -35 -3.3
      vertex -25 -34.4733 -3.35188
    endloop
  endfacet
  facet normal 1 0 -0
    outer loop
      vertex -25 -33.0908 -7.90919
      vertex -25 -33.5 -8.24497
      vertex -25 -30.25 -11
    endloop
  endfacet
  facet normal 1 0 0
    outer loop
      vertex -25 -30.25 -1
      vertex -25 -34.4733 -3.35188
      vertex -25 -33.9668 -3.50552
    endloop
  endfacet
  facet normal 1 0 0
    outer loop
      vertex -25 -30.25 -1
      vertex -25 -33.9668 -3.50552
      vertex -25 -33.5 -3.75503
    endloop
  endfacet
  facet normal 1 0 -0
    outer loop
      vertex -25 -32.3519 -6.52674
      vertex -25 -32.5055 -7.03324
      vertex -25 -30.25 -11
    endloop
  endfacet
  facet normal 1 0 0
    outer loop
      vertex -25 -30.25 -1
      vertex -25 -33.5 -3.75503
      vertex -25 -33.0908 -4.09081
    endloop
  endfacet
  facet normal 1 0 0
    outer loop
      vertex -25 -30.25 -1
      vertex -25 -33.0908 -4.09081
      vertex -25 -32.755 -4.49996
    endloop
  endfacet
  facet normal 1 0 0
    outer loop
      vertex -25 -30.25 -1
      vertex -25 -32.5055 -4.96675
      vertex -25 -30.25 -11
    endloop
  endfacet
  facet normal 1 0 0
    outer loop
      vertex -25 -30.25 -1
      vertex -25 -32.755 -4.49996
      vertex -25 -32.5055 -4.96675
    endloop
  endfacet
  facet normal 1 0 0
    outer loop
      vertex -25 -32.5055 -4.96675
      vertex -25 -32.3519 -5.47326
      vertex -25 -30.25 -11
    endloop
  endfacet
  facet normal 1 0 -0
    outer loop
      vertex -25 -32.755 -7.50004
      vertex -25 -33.0908 -7.90919
      vertex -25 -30.25 -11
    endloop
  endfacet
  facet normal 1 -0 0
    outer loop
      vertex -25 -30.25 -11
      vertex -25 -34.4733 -8.64812
      vertex -25 -39.5 -11
    endloop
  endfacet
  facet normal 1 0 0
    outer loop
      vertex -25 -34.4733 -8.64812
      vertex -25 -35 -8.7
      vertex -25 -39.5 -11
    endloop
  endfacet
  facet normal 1 -0 0
    outer loop
      vertex -25 -35 -8.7
      vertex -25 -35.5267 -8.64812
      vertex -25 -39.5 -11
    endloop
  endfacet
  facet normal 1 -0 0
    outer loop
      vertex -25 -35.5267 -8.64812
      vertex -25 -36.0332 -8.49447
      vertex -25 -39.5 -11
    endloop
  endfacet
  facet normal 1 -0 0
    outer loop
      vertex -25 -36.0332 -8.49447
      vertex -25 -36.5 -8.24497
      vertex -25 -39.5 -11
    endloop
  endfacet
  facet normal 1 -0 0
    outer loop
      vertex -25 -36.5 -8.24497
      vertex -25 -36.9092 -7.90919
      vertex -25 -39.5 -11
    endloop
  endfacet
  facet normal 1 -0 0
    outer loop
      vertex -25 -36.9092 -7.90919
      vertex -25 -37.245 -7.50004
      vertex -25 -39.5 -11
    endloop
  endfacet
  facet normal 1 -0 0
    outer loop
      vertex -25 -37.245 -7.50004
      vertex -25 -37.4945 -7.03324
      vertex -25 -39.5 -11
    endloop
  endfacet
  facet normal 1 -0 0
    outer loop
      vertex -25 -37.4945 -7.03324
      vertex -25 -37.6481 -6.52674
      vertex -25 -39.5 -11
    endloop
  endfacet
  facet normal 1 0 0
    outer loop
      vertex -25 -37.245 -4.49996
      vertex -25 -36.9092 -4.09081
      vertex -25 -40 -1
    endloop
  endfacet
  facet normal 1 0 -0
    outer loop
      vertex -25 -32.3 -6
      vertex -25 -32.3519 -6.52674
      vertex -25 -30.25 -11
    endloop
  endfacet
  facet normal 0 -0 1
    outer loop
      vertex -35 -30.25 -1
      vertex -35 -40 -1
      vertex -25 -40 -1
    endloop
  endfacet
  facet normal 0 0 1
    outer loop
      vertex -25 -30.25 -1
      vertex -35 -30.25 -1
      vertex -25 -40 -1
    endloop
  endfacet
  facet normal -0 -0 -1
    outer loop
      vertex 25 -39.5 -11
      vertex 25 -30.25 -11
      vertex 35 -39.5 -11
    endloop
  endfacet
  facet normal 0 0 -1
    outer loop
      vertex 35 -39.5 -11
      vertex 25 -30.25 -11
      vertex 35 -30.25 -11
    endloop
  endfacet
  facet normal -1 -0 -0
    outer loop
      vertex 25 -40 -13.5
      vertex 25 -40 -1
      vertex 25 -39.5 -13.5
    endloop
  endfacet
  facet normal -1 0 -0
    outer loop
      vertex 25 -34.4733 -3.35188
      vertex 25 -40 -1
      vertex 25 -30.25 -1
    endloop
  endfacet
  facet normal -1 -0 0
    outer loop
      vertex 25 -32.5055 -7.03324
      vertex 25 -30.25 -1
      vertex 25 -30.25 -11
    endloop
  endfacet
  facet normal -1 0 0
    outer loop
      vertex 25 -39.5 -13.5
      vertex 25 -40 -1
      vertex 25 -39.5 -11
    endloop
  endfacet
  facet normal -1 0 -0
    outer loop
      vertex 25 -39.5 -11
      vertex 25 -40 -1
      vertex 25 -37.6481 -5.47326
    endloop
  endfacet
  facet normal -1 0 0
    outer loop
      vertex 25 -39.5 -11
      vertex 25 -37.6481 -5.47326
      vertex 25 -37.7 -6
    endloop
  endfacet
  facet normal -1 0 0
    outer loop
      vertex 25 -39.5 -11
      vertex 25 -37.7 -6
      vertex 25 -37.6481 -6.52674
    endloop
  endfacet
  facet normal -1 0 0
    outer loop
      vertex 25 -39.5 -11
      vertex 25 -37.6481 -6.52674
      vertex 25 -37.4945 -7.03324
    endloop
  endfacet
  facet normal -1 0 0
    outer loop
      vertex 25 -39.5 -11
      vertex 25 -37.4945 -7.03324
      vertex 25 -37.245 -7.50004
    endloop
  endfacet
  facet normal -1 0 0
    outer loop
      vertex 25 -39.5 -11
      vertex 25 -37.245 -7.50004
      vertex 25 -36.9092 -7.90919
    endloop
  endfacet
  facet normal -1 0 0
    outer loop
      vertex 25 -36.5 -8.24497
      vertex 25 -39.5 -11
      vertex 25 -36.9092 -7.90919
    endloop
  endfacet
  facet normal -1 -0 0
    outer loop
      vertex 25 -33.0908 -4.09081
      vertex 25 -30.25 -1
      vertex 25 -32.755 -4.49996
    endloop
  endfacet
  facet normal -1 0 0
    outer loop
      vertex 25 -35.5267 -8.64812
      vertex 25 -35 -8.7
      vertex 25 -30.25 -11
    endloop
  endfacet
  facet normal -1 -0 0
    outer loop
      vertex 25 -32.755 -4.49996
      vertex 25 -30.25 -1
      vertex 25 -32.5055 -4.96675
    endloop
  endfacet
  facet normal -1 -0 0
    outer loop
      vertex 25 -35 -8.7
      vertex 25 -34.4733 -8.64812
      vertex 25 -30.25 -11
    endloop
  endfacet
  facet normal -1 -0 0
    outer loop
      vertex 25 -34.4733 -8.64812
      vertex 25 -33.9668 -8.49447
      vertex 25 -30.25 -11
    endloop
  endfacet
  facet normal -1 -0 0
    outer loop
      vertex 25 -32.5055 -4.96675
      vertex 25 -30.25 -1
      vertex 25 -32.3519 -5.47326
    endloop
  endfacet
  facet normal -1 -0 0
    outer loop
      vertex 25 -33.9668 -8.49447
      vertex 25 -33.5 -8.24497
      vertex 25 -30.25 -11
    endloop
  endfacet
  facet normal -1 -0 0
    outer loop
      vertex 25 -33.5 -8.24497
      vertex 25 -33.0908 -7.90919
      vertex 25 -30.25 -11
    endloop
  endfacet
  facet normal -1 -0 0
    outer loop
      vertex 25 -32.3519 -5.47326
      vertex 25 -30.25 -1
      vertex 25 -32.3 -6
    endloop
  endfacet
  facet normal -1 -0 0
    outer loop
      vertex 25 -33.0908 -7.90919
      vertex 25 -32.755 -7.50004
      vertex 25 -30.25 -11
    endloop
  endfacet
  facet normal -1 -0 0
    outer loop
      vertex 25 -32.3519 -6.52674
      vertex 25 -30.25 -1
      vertex 25 -32.5055 -7.03324
    endloop
  endfacet
  facet normal -1 -0 0
    outer loop
      vertex 25 -32.755 -7.50004
      vertex 25 -32.5055 -7.03324
      vertex 25 -30.25 -11
    endloop
  endfacet
  facet normal -1 -0 0
    outer loop
      vertex 25 -32.3 -6
      vertex 25 -30.25 -1
      vertex 25 -32.3519 -6.52674
    endloop
  endfacet
  facet normal -1 -0 0
    outer loop
      vertex 25 -33.5 -3.75503
      vertex 25 -30.25 -1
      vertex 25 -33.0908 -4.09081
    endloop
  endfacet
  facet normal -1 -0 0
    outer loop
      vertex 25 -33.9668 -3.50552
      vertex 25 -30.25 -1
      vertex 25 -33.5 -3.75503
    endloop
  endfacet
  facet normal -1 -0 0
    outer loop
      vertex 25 -34.4733 -3.35188
      vertex 25 -30.25 -1
      vertex 25 -33.9668 -3.50552
    endloop
  endfacet
  facet normal -1 -0 -0
    outer loop
      vertex 25 -35 -3.3
      vertex 25 -40 -1
      vertex 25 -34.4733 -3.35188
    endloop
  endfacet
  facet normal -1 0 -0
    outer loop
      vertex 25 -35.5267 -3.35188
      vertex 25 -40 -1
      vertex 25 -35 -3.3
    endloop
  endfacet
  facet normal -1 0 -0
    outer loop
      vertex 25 -36.0332 -3.50552
      vertex 25 -40 -1
      vertex 25 -35.5267 -3.35188
    endloop
  endfacet
  facet normal -1 0 -0
    outer loop
      vertex 25 -36.5 -3.75503
      vertex 25 -40 -1
      vertex 25 -36.0332 -3.50552
    endloop
  endfacet
  facet normal -1 0 -0
    outer loop
      vertex 25 -36.9092 -4.09081
      vertex 25 -40 -1
      vertex 25 -36.5 -3.75503
    endloop
  endfacet
  facet normal -1 0 -0
    outer loop
      vertex 25 -37.245 -4.49996
      vertex 25 -40 -1
      vertex 25 -36.9092 -4.09081
    endloop
  endfacet
  facet normal -1 0 -0
    outer loop
      vertex 25 -37.4945 -4.96675
      vertex 25 -40 -1
      vertex 25 -37.245 -4.49996
    endloop
  endfacet
  facet normal -1 0 -0
    outer loop
      vertex 25 -37.6481 -5.47326
      vertex 25 -40 -1
      vertex 25 -37.4945 -4.96675
    endloop
  endfacet
  facet normal -1 0 0
    outer loop
      vertex 25 -39.5 -11
      vertex 25 -36.5 -8.24497
      vertex 25 -36.0332 -8.49447
    endloop
  endfacet
  facet normal -1 0 0
    outer loop
      vertex 25 -39.5 -11
      vertex 25 -36.0332 -8.49447
      vertex 25 -35.5267 -8.64812
    endloop
  endfacet
  facet normal -1 -0 0
    outer loop
      vertex 25 -39.5 -11
      vertex 25 -35.5267 -8.64812
      vertex 25 -30.25 -11
    endloop
  endfacet
  facet normal 1 0 -0
    outer loop
      vertex 35 -40 -1
      vertex 35 -40 -13.5
      vertex 35 -39.5 -13.5
    endloop
  endfacet
  facet normal 1 -0 0
    outer loop
      vertex 35 -37.7 -6
      vertex 35 -40 -1
      vertex 35 -39.5 -11
    endloop
  endfacet
  facet normal 1 -0 0
    outer loop
      vertex 35 -39.5 -11
      vertex 35 -40 -1
      vertex 35 -39.5 -13.5
    endloop
  endfacet
  facet normal 1 -0 0
    outer loop
      vertex 35 -37.6481 -6.52674
      vertex 35 -37.7 -6
      vertex 35 -39.5 -11
    endloop
  endfacet
  facet normal 1 -0 0
    outer loop
      vertex 35 -37.6481 -5.47326
      vertex 35 -40 -1
      vertex 35 -37.7 -6
    endloop
  endfacet
  facet normal 1 -0 0
    outer loop
      vertex 35 -37.4945 -4.96675
      vertex 35 -40 -1
      vertex 35 -37.6481 -5.47326
    endloop
  endfacet
  facet normal 1 0 -0
    outer loop
      vertex 35 -33.9668 -8.49447
      vertex 35 -34.4733 -8.64812
      vertex 35 -30.25 -11
    endloop
  endfacet
  facet normal 1 -0 0
    outer loop
      vertex 35 -37.245 -4.49996
      vertex 35 -40 -1
      vertex 35 -37.4945 -4.96675
    endloop
  endfacet
  facet normal 1 0 0
    outer loop
      vertex 35 -36.0332 -3.50552
      vertex 35 -35.5267 -3.35188
      vertex 35 -30.25 -1
    endloop
  endfacet
  facet normal 1 0 -0
    outer loop
      vertex 35 -33.5 -8.24497
      vertex 35 -33.9668 -8.49447
      vertex 35 -30.25 -11
    endloop
  endfacet
  facet normal 1 -0 0
    outer loop
      vertex 35 -36.5 -3.75503
      vertex 35 -40 -1
      vertex 35 -36.9092 -4.09081
    endloop
  endfacet
  facet normal 1 -0 0
    outer loop
      vertex 35 -36.0332 -3.50552
      vertex 35 -40 -1
      vertex 35 -36.5 -3.75503
    endloop
  endfacet
  facet normal 1 0 0
    outer loop
      vertex 35 -35.5267 -3.35188
      vertex 35 -35 -3.3
      vertex 35 -30.25 -1
    endloop
  endfacet
  facet normal 1 0 0
    outer loop
      vertex 35 -30.25 -1
      vertex 35 -40 -1
      vertex 35 -36.0332 -3.50552
    endloop
  endfacet
  facet normal 1 0 0
    outer loop
      vertex 35 -32.3519 -5.47326
      vertex 35 -32.3 -6
      vertex 35 -30.25 -11
    endloop
  endfacet
  facet normal 1 0 -0
    outer loop
      vertex 35 -32.5055 -7.03324
      vertex 35 -32.755 -7.50004
      vertex 35 -30.25 -11
    endloop
  endfacet
  facet normal 1 0 0
    outer loop
      vertex 35 -30.25 -1
      vertex 35 -35 -3.3
      vertex 35 -34.4733 -3.35188
    endloop
  endfacet
  facet normal 1 0 -0
    outer loop
      vertex 35 -33.0908 -7.90919
      vertex 35 -33.5 -8.24497
      vertex 35 -30.25 -11
    endloop
  endfacet
  facet normal 1 0 0
    outer loop
      vertex 35 -30.25 -1
      vertex 35 -34.4733 -3.35188
      vertex 35 -33.9668 -3.50552
    endloop
  endfacet
  facet normal 1 0 0
    outer loop
      vertex 35 -30.25 -1
      vertex 35 -33.9668 -3.50552
      vertex 35 -33.5 -3.75503
    endloop
  endfacet
  facet normal 1 0 -0
    outer loop
      vertex 35 -32.3519 -6.52674
      vertex 35 -32.5055 -7.03324
      vertex 35 -30.25 -11
    endloop
  endfacet
  facet normal 1 0 0
    outer loop
      vertex 35 -30.25 -1
      vertex 35 -33.5 -3.75503
      vertex 35 -33.0908 -4.09081
    endloop
  endfacet
  facet normal 1 0 0
    outer loop
      vertex 35 -30.25 -1
      vertex 35 -33.0908 -4.09081
      vertex 35 -32.755 -4.49996
    endloop
  endfacet
  facet normal 1 0 0
    outer loop
      vertex 35 -30.25 -1
      vertex 35 -32.5055 -4.96675
      vertex 35 -30.25 -11
    endloop
  endfacet
  facet normal 1 0 0
    outer loop
      vertex 35 -30.25 -1
      vertex 35 -32.755 -4.49996
      vertex 35 -32.5055 -4.96675
    endloop
  endfacet
  facet normal 1 0 0
    outer loop
      vertex 35 -32.5055 -4.96675
      vertex 35 -32.3519 -5.47326
      vertex 35 -30.25 -11
    endloop
  endfacet
  facet normal 1 0 -0
    outer loop
      vertex 35 -32.755 -7.50004
      vertex 35 -33.0908 -7.90919
      vertex 35 -30.25 -11
    endloop
  endfacet
  facet normal 1 -0 0
    outer loop
      vertex 35 -30.25 -11
      vertex 35 -34.4733 -8.64812
      vertex 35 -39.5 -11
    endloop
  endfacet
  facet normal 1 0 0
    outer loop
      vertex 35 -34.4733 -8.64812
      vertex 35 -35 -8.7
      vertex 35 -39.5 -11
    endloop
  endfacet
  facet normal 1 -0 0
    outer loop
      vertex 35 -35 -8.7
      vertex 35 -35.5267 -8.64812
      vertex 35 -39.5 -11
    endloop
  endfacet
  facet normal 1 -0 0
    outer loop
      vertex 35 -35.5267 -8.64812
      vertex 35 -36.0332 -8.49447
      vertex 35 -39.5 -11
    endloop
  endfacet
  facet normal 1 -0 0
    outer loop
      vertex 35 -36.0332 -8.49447
      vertex 35 -36.5 -8.24497
      vertex 35 -39.5 -11
    endloop
  endfacet
  facet normal 1 -0 0
    outer loop
      vertex 35 -36.5 -8.24497
      vertex 35 -36.9092 -7.90919
      vertex 35 -39.5 -11
    endloop
  endfacet
  facet normal 1 -0 0
    outer loop
      vertex 35 -36.9092 -7.90919
      vertex 35 -37.245 -7.50004
      vertex 35 -39.5 -11
    endloop
  endfacet
  facet normal 1 -0 0
    outer loop
      vertex 35 -37.245 -7.50004
      vertex 35 -37.4945 -7.03324
      vertex 35 -39.5 -11
    endloop
  endfacet
  facet normal 1 -0 0
    outer loop
      vertex 35 -37.4945 -7.03324
      vertex 35 -37.6481 -6.52674
      vertex 35 -39.5 -11
    endloop
  endfacet
  facet normal 1 0 0
    outer loop
      vertex 35 -37.245 -4.49996
      vertex 35 -36.9092 -4.09081
      vertex 35 -40 -1
    endloop
  endfacet
  facet normal 1 0 -0
    outer loop
      vertex 35 -32.3 -6
      vertex 35 -32.3519 -6.52674
      vertex 35 -30.25 -11
    endloop
  endfacet
  facet normal 0 -0 1
    outer loop
      vertex 25 -30.25 -1
      vertex 25 -40 -1
      vertex 35 -40 -1
    endloop
  endfacet
  facet normal 0 0 1
    outer loop
      vertex 35 -30.25 -1
      vertex 25 -30.25 -1
      vertex 35 -40 -1
    endloop
  endfacet
  facet normal 1 0 0
    outer loop
      vertex -36.75 5.25 5.51
      vertex -36.75 28.25 13.5
      vertex -36.75 -28.25 13.5
    endloop
  endfacet
  facet normal 1 0 0
    outer loop
      vertex -36.75 -28.25 -11.49
      vertex -36.75 -24.45 5.51
      vertex -36.75 -28.25 13.5
    endloop
  endfacet
  facet normal 1 0 0
    outer loop
      vertex -36.75 -24.45 5.51
      vertex -36.75 -13.95 5.51
      vertex -36.75 -28.25 13.5
    endloop
  endfacet
  facet normal 1 0 0
    outer loop
      vertex -36.75 -13.95 5.51
      vertex -36.75 5.25 5.51
      vertex -36.75 -28.25 13.5
    endloop
  endfacet
  facet normal 1 0 0
    outer loop
      vertex -36.75 -28.25 -11.49
      vertex -36.75 28.25 -11.49
      vertex -36.75 -13.95 -6.49
    endloop
  endfacet
  facet normal 1 0 0
    outer loop
      vertex -36.75 -28.25 -11.49
      vertex -36.75 -24.45 -6.49
      vertex -36.75 -24.45 5.51
    endloop
  endfacet
  facet normal 1 0 0
    outer loop
      vertex -36.75 -28.25 -11.49
      vertex -36.75 -13.95 -6.49
      vertex -36.75 -24.45 -6.49
    endloop
  endfacet
  facet normal 1 -0 0
    outer loop
      vertex -36.75 19.25 5.51
      vertex -36.75 28.25 13.5
      vertex -36.75 5.25 5.51
    endloop
  endfacet
  facet normal 1 0 0
    outer loop
      vertex -36.75 28.25 -11.49
      vertex -36.75 28.25 13.5
      vertex -36.75 19.25 5.51
    endloop
  endfacet
  facet normal 1 0 -0
    outer loop
      vertex -36.75 19.25 5.51
      vertex -36.75 19.25 -6.49
      vertex -36.75 28.25 -11.49
    endloop
  endfacet
  facet normal 1 0 -0
    outer loop
      vertex -36.75 19.25 -6.49
      vertex -36.75 5.25 -6.49
      vertex -36.75 28.25 -11.49
    endloop
  endfacet
  facet normal 1 0 0
    outer loop
      vertex -36.75 -13.95 -6.49
      vertex -36.75 28.25 -11.49
      vertex -36.75 5.25 -6.49
    endloop
  endfacet
  facet normal 1 0 -0
    outer loop
      vertex -36.75 -13.95 5.51
      vertex -36.75 -13.95 -6.49
      vertex -36.75 5.25 -6.49
    endloop
  endfacet
  facet normal 1 0 0
    outer loop
      vertex -36.75 5.25 -6.49
      vertex -36.75 5.25 5.51
      vertex -36.75 -13.95 5.51
    endloop
  endfacet
  facet normal 0 1 0
    outer loop
      vertex 36.75 -28.25 13.5
      vertex 36.75 -28.25 -11.49
      vertex -36.75 -28.25 13.5
    endloop
  endfacet
  facet normal 0 1 -0
    outer loop
      vertex -36.75 -28.25 13.5
      vertex 36.75 -28.25 -11.49
      vertex -36.75 -28.25 -11.49
    endloop
  endfacet
  facet normal -1 0 0
    outer loop
      vertex 36.75 28.25 13.5
      vertex 36.75 28.25 -11.49
      vertex 36.75 -28.25 13.5
    endloop
  endfacet
  facet normal -1 0 0
    outer loop
      vertex 36.75 -28.25 13.5
      vertex 36.75 28.25 -11.49
      vertex 36.75 -28.25 -11.49
    endloop
  endfacet
  facet normal 0 -1 0
    outer loop
      vertex 36.75 28.25 -11.49
      vertex 36.75 28.25 13.5
      vertex -36.75 28.25 13.5
    endloop
  endfacet
  facet normal -0 -1 -0
    outer loop
      vertex -36.75 28.25 -11.49
      vertex 36.75 28.25 -11.49
      vertex -36.75 28.25 13.5
    endloop
  endfacet
  facet normal -0 -0 -1
    outer loop
      vertex -35 -40 -13.5
      vertex -35 -39.5 -13.5
      vertex -25 -40 -13.5
    endloop
  endfacet
  facet normal 0 0 -1
    outer loop
      vertex -25 -40 -13.5
      vertex -35 -39.5 -13.5
      vertex -25 -39.5 -13.5
    endloop
  endfacet
  facet normal 0 1 0
    outer loop
      vertex -35 -39.5 -13.5
      vertex -35 -39.5 -11
      vertex -25 -39.5 -13.5
    endloop
  endfacet
  facet normal 0 1 0
    outer loop
      vertex -25 -39.5 -13.5
      vertex -35 -39.5 -11
      vertex -25 -39.5 -11
    endloop
  endfacet
  facet normal 0 -1 0
    outer loop
      vertex -35 -40 -1
      vertex -35 -40 -13.5
      vertex -25 -40 -13.5
    endloop
  endfacet
  facet normal 0 -1 0
    outer loop
      vertex -25 -40 -1
      vertex -35 -40 -1
      vertex -25 -40 -13.5
    endloop
  endfacet
  facet normal 7.73472e-17 0.956941 -0.290284
    outer loop
      vertex -25 -37.4945 -4.96675
      vertex -25 -37.6481 -5.47326
      vertex -35 -37.4945 -4.96675
    endloop
  endfacet
  facet normal 7.78392e-17 0.956941 -0.290284
    outer loop
      vertex -35 -37.4945 -4.96675
      vertex -25 -37.6481 -5.47326
      vertex -35 -37.6481 -5.47326
    endloop
  endfacet
  facet normal 2.61171e-17 0.995185 -0.0980176
    outer loop
      vertex -25 -37.6481 -5.47326
      vertex -25 -37.7 -6
      vertex -35 -37.6481 -5.47326
    endloop
  endfacet
  facet normal 2.66292e-17 0.995185 -0.0980176
    outer loop
      vertex -35 -37.6481 -5.47326
      vertex -25 -37.7 -6
      vertex -35 -37.7 -6
    endloop
  endfacet
  facet normal 1.25605e-16 0.881921 -0.471397
    outer loop
      vertex -25 -37.245 -4.49996
      vertex -25 -37.4945 -4.96675
      vertex -35 -37.245 -4.49996
    endloop
  endfacet
  facet normal 1.22904e-16 0.881921 -0.471397
    outer loop
      vertex -35 -37.245 -4.49996
      vertex -25 -37.4945 -4.96675
      vertex -35 -37.4945 -4.96675
    endloop
  endfacet
  facet normal 1.12691e-16 0.77301 -0.634394
    outer loop
      vertex -25 -36.9092 -4.09081
      vertex -25 -37.245 -4.49996
      vertex -35 -36.9092 -4.09081
    endloop
  endfacet
  facet normal 1.72066e-16 0.77301 -0.634394
    outer loop
      vertex -35 -36.9092 -4.09081
      vertex -25 -37.245 -4.49996
      vertex -35 -37.245 -4.49996
    endloop
  endfacet
  facet normal 6.22407e-16 0.634394 -0.77301
    outer loop
      vertex -25 -36.5 -3.75503
      vertex -25 -36.9092 -4.09081
      vertex -35 -36.5 -3.75503
    endloop
  endfacet
  facet normal 1.39291e-16 0.634394 -0.77301
    outer loop
      vertex -35 -36.5 -3.75503
      vertex -25 -36.9092 -4.09081
      vertex -35 -36.9092 -4.09081
    endloop
  endfacet
  facet normal 1.95826e-16 0.471397 -0.881921
    outer loop
      vertex -25 -36.0332 -3.50552
      vertex -25 -36.5 -3.75503
      vertex -35 -36.0332 -3.50552
    endloop
  endfacet
  facet normal 5.28486e-16 0.471397 -0.881921
    outer loop
      vertex -35 -36.0332 -3.50552
      vertex -25 -36.5 -3.75503
      vertex -35 -36.5 -3.75503
    endloop
  endfacet
  facet normal 2.12483e-16 0.290284 -0.956941
    outer loop
      vertex -25 -35.5267 -3.35188
      vertex -25 -36.0332 -3.50552
      vertex -35 -35.5267 -3.35188
    endloop
  endfacet
  facet normal 2.13034e-16 0.290284 -0.956941
    outer loop
      vertex -35 -35.5267 -3.35188
      vertex -25 -36.0332 -3.50552
      vertex -35 -36.0332 -3.50552
    endloop
  endfacet
  facet normal 2.20975e-16 0.0980176 -0.995185
    outer loop
      vertex -25 -35 -3.3
      vertex -25 -35.5267 -3.35188
      vertex -35 -35 -3.3
    endloop
  endfacet
  facet normal 2.21227e-16 0.0980176 -0.995185
    outer loop
      vertex -35 -35 -3.3
      vertex -25 -35.5267 -3.35188
      vertex -35 -35.5267 -3.35188
    endloop
  endfacet
  facet normal 2.20975e-16 -0.0980176 -0.995185
    outer loop
      vertex -25 -34.4733 -3.35188
      vertex -25 -35 -3.3
      vertex -35 -34.4733 -3.35188
    endloop
  endfacet
  facet normal 2.20203e-16 -0.0980176 -0.995185
    outer loop
      vertex -35 -34.4733 -3.35188
      vertex -25 -35 -3.3
      vertex -35 -35 -3.3
    endloop
  endfacet
  facet normal 2.12483e-16 -0.290284 -0.956941
    outer loop
      vertex -25 -33.9668 -3.50552
      vertex -25 -34.4733 -3.35188
      vertex -35 -33.9668 -3.50552
    endloop
  endfacet
  facet normal 2.13034e-16 -0.290284 -0.956941
    outer loop
      vertex -35 -33.9668 -3.50552
      vertex -25 -34.4733 -3.35188
      vertex -35 -34.4733 -3.35188
    endloop
  endfacet
  facet normal 1.95826e-16 -0.471397 -0.881921
    outer loop
      vertex -25 -33.5 -3.75503
      vertex -25 -33.9668 -3.50552
      vertex -35 -33.5 -3.75503
    endloop
  endfacet
  facet normal 1.96646e-16 -0.471397 -0.881921
    outer loop
      vertex -35 -33.5 -3.75503
      vertex -25 -33.9668 -3.50552
      vertex -35 -33.9668 -3.50552
    endloop
  endfacet
  facet normal 1.37314e-16 -0.634394 -0.77301
    outer loop
      vertex -25 -33.0908 -4.09081
      vertex -25 -33.5 -3.75503
      vertex -35 -33.0908 -4.09081
    endloop
  endfacet
  facet normal 1.72066e-16 -0.634394 -0.77301
    outer loop
      vertex -35 -33.0908 -4.09081
      vertex -25 -33.5 -3.75503
      vertex -35 -33.5 -3.75503
    endloop
  endfacet
  facet normal 1.12691e-16 -0.77301 -0.634394
    outer loop
      vertex -35 -32.755 -4.49996
      vertex -25 -32.755 -4.49996
      vertex -25 -33.0908 -4.09081
    endloop
  endfacet
  facet normal 1.12691e-16 -0.77301 -0.634394
    outer loop
      vertex -35 -33.0908 -4.09081
      vertex -35 -32.755 -4.49996
      vertex -25 -33.0908 -4.09081
    endloop
  endfacet
  facet normal 1.25605e-16 -0.881921 -0.471397
    outer loop
      vertex -35 -32.5055 -4.96675
      vertex -25 -32.5055 -4.96675
      vertex -25 -32.755 -4.49996
    endloop
  endfacet
  facet normal 8.37368e-17 -0.881921 -0.471397
    outer loop
      vertex -35 -32.755 -4.49996
      vertex -35 -32.5055 -4.96675
      vertex -25 -32.755 -4.49996
    endloop
  endfacet
  facet normal 7.73472e-17 -0.956941 -0.290284
    outer loop
      vertex -35 -32.3519 -5.47326
      vertex -25 -32.3519 -5.47326
      vertex -25 -32.5055 -4.96675
    endloop
  endfacet
  facet normal 7.73472e-17 -0.956941 -0.290284
    outer loop
      vertex -35 -32.5055 -4.96675
      vertex -35 -32.3519 -5.47326
      vertex -25 -32.5055 -4.96675
    endloop
  endfacet
  facet normal -6.81004e-16 -0.995185 -0.0980176
    outer loop
      vertex -35 -32.3 -6
      vertex -25 -32.3 -6
      vertex -25 -32.3519 -5.47326
    endloop
  endfacet
  facet normal 2.61171e-17 -0.995185 -0.0980176
    outer loop
      vertex -35 -32.3519 -5.47326
      vertex -35 -32.3 -6
      vertex -25 -32.3519 -5.47326
    endloop
  endfacet
  facet normal -7.34351e-16 -0.995185 0.0980176
    outer loop
      vertex -25 -32.3519 -6.52674
      vertex -25 -32.3 -6
      vertex -35 -32.3 -6
    endloop
  endfacet
  facet normal -2.61171e-17 -0.995185 0.0980176
    outer loop
      vertex -35 -32.3519 -6.52674
      vertex -25 -32.3519 -6.52674
      vertex -35 -32.3 -6
    endloop
  endfacet
  facet normal -7.78392e-17 -0.956941 0.290284
    outer loop
      vertex -25 -32.5055 -7.03324
      vertex -25 -32.3519 -6.52674
      vertex -35 -32.3519 -6.52674
    endloop
  endfacet
  facet normal -7.73472e-17 -0.956941 0.290284
    outer loop
      vertex -35 -32.5055 -7.03324
      vertex -25 -32.5055 -7.03324
      vertex -35 -32.3519 -6.52674
    endloop
  endfacet
  facet normal -1.22904e-16 -0.881921 0.471397
    outer loop
      vertex -25 -32.755 -7.50004
      vertex -25 -32.5055 -7.03324
      vertex -35 -32.5055 -7.03324
    endloop
  endfacet
  facet normal -1.25605e-16 -0.881921 0.471397
    outer loop
      vertex -35 -32.755 -7.50004
      vertex -25 -32.755 -7.50004
      vertex -35 -32.5055 -7.03324
    endloop
  endfacet
  facet normal -1.72066e-16 -0.77301 0.634394
    outer loop
      vertex -25 -33.0908 -7.90919
      vertex -25 -32.755 -7.50004
      vertex -35 -32.755 -7.50004
    endloop
  endfacet
  facet normal -1.12691e-16 -0.77301 0.634394
    outer loop
      vertex -35 -33.0908 -7.90919
      vertex -25 -33.0908 -7.90919
      vertex -35 -32.755 -7.50004
    endloop
  endfacet
  facet normal -1.39291e-16 -0.634394 0.77301
    outer loop
      vertex -25 -33.5 -8.24497
      vertex -25 -33.0908 -7.90919
      vertex -35 -33.0908 -7.90919
    endloop
  endfacet
  facet normal -2.74628e-16 -0.634394 0.77301
    outer loop
      vertex -35 -33.5 -8.24497
      vertex -25 -33.5 -8.24497
      vertex -35 -33.0908 -7.90919
    endloop
  endfacet
  facet normal -3.11356e-16 -0.471397 0.881921
    outer loop
      vertex -25 -33.9668 -8.49447
      vertex -25 -33.5 -8.24497
      vertex -35 -33.5 -8.24497
    endloop
  endfacet
  facet normal -1.56661e-16 -0.471397 0.881921
    outer loop
      vertex -35 -33.9668 -8.49447
      vertex -25 -33.9668 -8.49447
      vertex -35 -33.5 -8.24497
    endloop
  endfacet
  facet normal -1.72066e-16 -0.290284 0.956941
    outer loop
      vertex -25 -34.4733 -8.64812
      vertex -25 -33.9668 -8.49447
      vertex -35 -33.9668 -8.49447
    endloop
  endfacet
  facet normal -1.69987e-16 -0.290284 0.956941
    outer loop
      vertex -35 -34.4733 -8.64812
      vertex -25 -34.4733 -8.64812
      vertex -35 -33.9668 -8.49447
    endloop
  endfacet
  facet normal -1.76162e-16 -0.0980176 0.995185
    outer loop
      vertex -25 -35 -8.7
      vertex -25 -34.4733 -8.64812
      vertex -35 -34.4733 -8.64812
    endloop
  endfacet
  facet normal -1.7678e-16 -0.0980176 0.995185
    outer loop
      vertex -35 -35 -8.7
      vertex -25 -35 -8.7
      vertex -35 -34.4733 -8.64812
    endloop
  endfacet
  facet normal -1.76162e-16 0.0980176 0.995185
    outer loop
      vertex -25 -35.5267 -8.64812
      vertex -25 -35 -8.7
      vertex -35 -35 -8.7
    endloop
  endfacet
  facet normal -1.7678e-16 0.0980176 0.995185
    outer loop
      vertex -35 -35.5267 -8.64812
      vertex -25 -35.5267 -8.64812
      vertex -35 -35 -8.7
    endloop
  endfacet
  facet normal -1.67969e-16 0.290284 0.956941
    outer loop
      vertex -25 -36.0332 -8.49447
      vertex -25 -35.5267 -8.64812
      vertex -35 -35.5267 -8.64812
    endloop
  endfacet
  facet normal -1.69987e-16 0.290284 0.956941
    outer loop
      vertex -35 -36.0332 -8.49447
      vertex -25 -36.0332 -8.49447
      vertex -35 -35.5267 -8.64812
    endloop
  endfacet
  facet normal -1.59775e-16 0.471397 0.881921
    outer loop
      vertex -25 -36.5 -8.24497
      vertex -25 -36.0332 -8.49447
      vertex -35 -36.0332 -8.49447
    endloop
  endfacet
  facet normal -3.13321e-16 0.471397 0.881921
    outer loop
      vertex -35 -36.5 -8.24497
      vertex -25 -36.5 -8.24497
      vertex -35 -36.0332 -8.49447
    endloop
  endfacet
  facet normal -2.74486e-16 0.634394 0.77301
    outer loop
      vertex -25 -36.9092 -7.90919
      vertex -25 -36.5 -8.24497
      vertex -35 -36.5 -8.24497
    endloop
  endfacet
  facet normal -1.37314e-16 0.634394 0.77301
    outer loop
      vertex -35 -36.9092 -7.90919
      vertex -25 -36.9092 -7.90919
      vertex -35 -36.5 -8.24497
    endloop
  endfacet
  facet normal -1.12691e-16 0.77301 0.634394
    outer loop
      vertex -25 -36.9092 -7.90919
      vertex -35 -36.9092 -7.90919
      vertex -25 -37.245 -7.50004
    endloop
  endfacet
  facet normal -1.12691e-16 0.77301 0.634394
    outer loop
      vertex -25 -37.245 -7.50004
      vertex -35 -36.9092 -7.90919
      vertex -35 -37.245 -7.50004
    endloop
  endfacet
  facet normal -8.37368e-17 0.881921 0.471397
    outer loop
      vertex -25 -37.245 -7.50004
      vertex -35 -37.245 -7.50004
      vertex -25 -37.4945 -7.03324
    endloop
  endfacet
  facet normal -1.25605e-16 0.881921 0.471397
    outer loop
      vertex -25 -37.4945 -7.03324
      vertex -35 -37.245 -7.50004
      vertex -35 -37.4945 -7.03324
    endloop
  endfacet
  facet normal -7.73472e-17 0.956941 0.290284
    outer loop
      vertex -25 -37.4945 -7.03324
      vertex -35 -37.4945 -7.03324
      vertex -25 -37.6481 -6.52674
    endloop
  endfacet
  facet normal -7.73472e-17 0.956941 0.290284
    outer loop
      vertex -25 -37.6481 -6.52674
      vertex -35 -37.4945 -7.03324
      vertex -35 -37.6481 -6.52674
    endloop
  endfacet
  facet normal -2.61171e-17 0.995185 0.0980176
    outer loop
      vertex -25 -37.6481 -6.52674
      vertex -35 -37.6481 -6.52674
      vertex -25 -37.7 -6
    endloop
  endfacet
  facet normal -2.61171e-17 0.995185 0.0980176
    outer loop
      vertex -25 -37.7 -6
      vertex -35 -37.6481 -6.52674
      vertex -35 -37.7 -6
    endloop
  endfacet
  facet normal 0 1 0
    outer loop
      vertex 25 -39.5 -13.5
      vertex 25 -39.5 -11
      vertex 35 -39.5 -13.5
    endloop
  endfacet
  facet normal 0 1 0
    outer loop
      vertex 35 -39.5 -13.5
      vertex 25 -39.5 -11
      vertex 35 -39.5 -11
    endloop
  endfacet
  facet normal -0 -0 -1
    outer loop
      vertex 25 -40 -13.5
      vertex 25 -39.5 -13.5
      vertex 35 -40 -13.5
    endloop
  endfacet
  facet normal 0 0 -1
    outer loop
      vertex 35 -40 -13.5
      vertex 25 -39.5 -13.5
      vertex 35 -39.5 -13.5
    endloop
  endfacet
  facet normal 0 -1 0
    outer loop
      vertex 25 -40 -1
      vertex 25 -40 -13.5
      vertex 35 -40 -13.5
    endloop
  endfacet
  facet normal 0 -1 0
    outer loop
      vertex 35 -40 -1
      vertex 25 -40 -1
      vertex 35 -40 -13.5
    endloop
  endfacet
  facet normal 7.73472e-17 0.956941 -0.290284
    outer loop
      vertex 35 -37.4945 -4.96675
      vertex 35 -37.6481 -5.47326
      vertex 25 -37.4945 -4.96675
    endloop
  endfacet
  facet normal 7.78392e-17 0.956941 -0.290284
    outer loop
      vertex 25 -37.4945 -4.96675
      vertex 35 -37.6481 -5.47326
      vertex 25 -37.6481 -5.47326
    endloop
  endfacet
  facet normal 2.61171e-17 0.995185 -0.0980176
    outer loop
      vertex 35 -37.6481 -5.47326
      vertex 35 -37.7 -6
      vertex 25 -37.6481 -5.47326
    endloop
  endfacet
  facet normal 2.66292e-17 0.995185 -0.0980176
    outer loop
      vertex 25 -37.6481 -5.47326
      vertex 35 -37.7 -6
      vertex 25 -37.7 -6
    endloop
  endfacet
  facet normal 1.25605e-16 0.881921 -0.471397
    outer loop
      vertex 35 -37.245 -4.49996
      vertex 35 -37.4945 -4.96675
      vertex 25 -37.245 -4.49996
    endloop
  endfacet
  facet normal 1.22904e-16 0.881921 -0.471397
    outer loop
      vertex 25 -37.245 -4.49996
      vertex 35 -37.4945 -4.96675
      vertex 25 -37.4945 -4.96675
    endloop
  endfacet
  facet normal 1.12691e-16 0.77301 -0.634394
    outer loop
      vertex 35 -36.9092 -4.09081
      vertex 35 -37.245 -4.49996
      vertex 25 -36.9092 -4.09081
    endloop
  endfacet
  facet normal 1.72066e-16 0.77301 -0.634394
    outer loop
      vertex 25 -36.9092 -4.09081
      vertex 35 -37.245 -4.49996
      vertex 25 -37.245 -4.49996
    endloop
  endfacet
  facet normal 6.22407e-16 0.634394 -0.77301
    outer loop
      vertex 35 -36.5 -3.75503
      vertex 35 -36.9092 -4.09081
      vertex 25 -36.5 -3.75503
    endloop
  endfacet
  facet normal 1.39291e-16 0.634394 -0.77301
    outer loop
      vertex 25 -36.5 -3.75503
      vertex 35 -36.9092 -4.09081
      vertex 25 -36.9092 -4.09081
    endloop
  endfacet
  facet normal 1.95826e-16 0.471397 -0.881921
    outer loop
      vertex 35 -36.0332 -3.50552
      vertex 35 -36.5 -3.75503
      vertex 25 -36.0332 -3.50552
    endloop
  endfacet
  facet normal 5.28486e-16 0.471397 -0.881921
    outer loop
      vertex 25 -36.0332 -3.50552
      vertex 35 -36.5 -3.75503
      vertex 25 -36.5 -3.75503
    endloop
  endfacet
  facet normal 2.12483e-16 0.290284 -0.956941
    outer loop
      vertex 35 -35.5267 -3.35188
      vertex 35 -36.0332 -3.50552
      vertex 25 -35.5267 -3.35188
    endloop
  endfacet
  facet normal 2.13034e-16 0.290284 -0.956941
    outer loop
      vertex 25 -35.5267 -3.35188
      vertex 35 -36.0332 -3.50552
      vertex 25 -36.0332 -3.50552
    endloop
  endfacet
  facet normal 2.20975e-16 0.0980176 -0.995185
    outer loop
      vertex 35 -35 -3.3
      vertex 35 -35.5267 -3.35188
      vertex 25 -35 -3.3
    endloop
  endfacet
  facet normal 2.21227e-16 0.0980176 -0.995185
    outer loop
      vertex 25 -35 -3.3
      vertex 35 -35.5267 -3.35188
      vertex 25 -35.5267 -3.35188
    endloop
  endfacet
  facet normal 2.20975e-16 -0.0980176 -0.995185
    outer loop
      vertex 35 -34.4733 -3.35188
      vertex 35 -35 -3.3
      vertex 25 -34.4733 -3.35188
    endloop
  endfacet
  facet normal 2.20203e-16 -0.0980176 -0.995185
    outer loop
      vertex 25 -34.4733 -3.35188
      vertex 35 -35 -3.3
      vertex 25 -35 -3.3
    endloop
  endfacet
  facet normal 2.12483e-16 -0.290284 -0.956941
    outer loop
      vertex 35 -33.9668 -3.50552
      vertex 35 -34.4733 -3.35188
      vertex 25 -33.9668 -3.50552
    endloop
  endfacet
  facet normal 2.13034e-16 -0.290284 -0.956941
    outer loop
      vertex 25 -33.9668 -3.50552
      vertex 35 -34.4733 -3.35188
      vertex 25 -34.4733 -3.35188
    endloop
  endfacet
  facet normal 1.95826e-16 -0.471397 -0.881921
    outer loop
      vertex 35 -33.5 -3.75503
      vertex 35 -33.9668 -3.50552
      vertex 25 -33.5 -3.75503
    endloop
  endfacet
  facet normal 1.96646e-16 -0.471397 -0.881921
    outer loop
      vertex 25 -33.5 -3.75503
      vertex 35 -33.9668 -3.50552
      vertex 25 -33.9668 -3.50552
    endloop
  endfacet
  facet normal 1.37314e-16 -0.634394 -0.77301
    outer loop
      vertex 35 -33.0908 -4.09081
      vertex 35 -33.5 -3.75503
      vertex 25 -33.0908 -4.09081
    endloop
  endfacet
  facet normal 1.72066e-16 -0.634394 -0.77301
    outer loop
      vertex 25 -33.0908 -4.09081
      vertex 35 -33.5 -3.75503
      vertex 25 -33.5 -3.75503
    endloop
  endfacet
  facet normal 1.12691e-16 -0.77301 -0.634394
    outer loop
      vertex 25 -32.755 -4.49996
      vertex 35 -32.755 -4.49996
      vertex 35 -33.0908 -4.09081
    endloop
  endfacet
  facet normal 1.12691e-16 -0.77301 -0.634394
    outer loop
      vertex 25 -33.0908 -4.09081
      vertex 25 -32.755 -4.49996
      vertex 35 -33.0908 -4.09081
    endloop
  endfacet
  facet normal 1.25605e-16 -0.881921 -0.471397
    outer loop
      vertex 25 -32.5055 -4.96675
      vertex 35 -32.5055 -4.96675
      vertex 35 -32.755 -4.49996
    endloop
  endfacet
  facet normal 8.37368e-17 -0.881921 -0.471397
    outer loop
      vertex 25 -32.755 -4.49996
      vertex 25 -32.5055 -4.96675
      vertex 35 -32.755 -4.49996
    endloop
  endfacet
  facet normal 7.73472e-17 -0.956941 -0.290284
    outer loop
      vertex 25 -32.3519 -5.47326
      vertex 35 -32.3519 -5.47326
      vertex 35 -32.5055 -4.96675
    endloop
  endfacet
  facet normal 7.73472e-17 -0.956941 -0.290284
    outer loop
      vertex 25 -32.5055 -4.96675
      vertex 25 -32.3519 -5.47326
      vertex 35 -32.5055 -4.96675
    endloop
  endfacet
  facet normal -6.81004e-16 -0.995185 -0.0980176
    outer loop
      vertex 25 -32.3 -6
      vertex 35 -32.3 -6
      vertex 35 -32.3519 -5.47326
    endloop
  endfacet
  facet normal 2.61171e-17 -0.995185 -0.0980176
    outer loop
      vertex 25 -32.3519 -5.47326
      vertex 25 -32.3 -6
      vertex 35 -32.3519 -5.47326
    endloop
  endfacet
  facet normal -7.34351e-16 -0.995185 0.0980176
    outer loop
      vertex 35 -32.3519 -6.52674
      vertex 35 -32.3 -6
      vertex 25 -32.3 -6
    endloop
  endfacet
  facet normal -2.61171e-17 -0.995185 0.0980176
    outer loop
      vertex 25 -32.3519 -6.52674
      vertex 35 -32.3519 -6.52674
      vertex 25 -32.3 -6
    endloop
  endfacet
  facet normal -7.78392e-17 -0.956941 0.290284
    outer loop
      vertex 35 -32.5055 -7.03324
      vertex 35 -32.3519 -6.52674
      vertex 25 -32.3519 -6.52674
    endloop
  endfacet
  facet normal -7.73472e-17 -0.956941 0.290284
    outer loop
      vertex 25 -32.5055 -7.03324
      vertex 35 -32.5055 -7.03324
      vertex 25 -32.3519 -6.52674
    endloop
  endfacet
  facet normal -1.22904e-16 -0.881921 0.471397
    outer loop
      vertex 35 -32.755 -7.50004
      vertex 35 -32.5055 -7.03324
      vertex 25 -32.5055 -7.03324
    endloop
  endfacet
  facet normal -1.25605e-16 -0.881921 0.471397
    outer loop
      vertex 25 -32.755 -7.50004
      vertex 35 -32.755 -7.50004
      vertex 25 -32.5055 -7.03324
    endloop
  endfacet
  facet normal -1.72066e-16 -0.77301 0.634394
    outer loop
      vertex 35 -33.0908 -7.90919
      vertex 35 -32.755 -7.50004
      vertex 25 -32.755 -7.50004
    endloop
  endfacet
  facet normal -1.12691e-16 -0.77301 0.634394
    outer loop
      vertex 25 -33.0908 -7.90919
      vertex 35 -33.0908 -7.90919
      vertex 25 -32.755 -7.50004
    endloop
  endfacet
  facet normal -1.39291e-16 -0.634394 0.77301
    outer loop
      vertex 35 -33.5 -8.24497
      vertex 35 -33.0908 -7.90919
      vertex 25 -33.0908 -7.90919
    endloop
  endfacet
  facet normal -2.74628e-16 -0.634394 0.77301
    outer loop
      vertex 25 -33.5 -8.24497
      vertex 35 -33.5 -8.24497
      vertex 25 -33.0908 -7.90919
    endloop
  endfacet
  facet normal -3.11356e-16 -0.471397 0.881921
    outer loop
      vertex 35 -33.9668 -8.49447
      vertex 35 -33.5 -8.24497
      vertex 25 -33.5 -8.24497
    endloop
  endfacet
  facet normal -1.56661e-16 -0.471397 0.881921
    outer loop
      vertex 25 -33.9668 -8.49447
      vertex 35 -33.9668 -8.49447
      vertex 25 -33.5 -8.24497
    endloop
  endfacet
  facet normal -1.72066e-16 -0.290284 0.956941
    outer loop
      vertex 35 -34.4733 -8.64812
      vertex 35 -33.9668 -8.49447
      vertex 25 -33.9668 -8.49447
    endloop
  endfacet
  facet normal -1.69987e-16 -0.290284 0.956941
    outer loop
      vertex 25 -34.4733 -8.64812
      vertex 35 -34.4733 -8.64812
      vertex 25 -33.9668 -8.49447
    endloop
  endfacet
  facet normal -1.76162e-16 -0.0980176 0.995185
    outer loop
      vertex 35 -35 -8.7
      vertex 35 -34.4733 -8.64812
      vertex 25 -34.4733 -8.64812
    endloop
  endfacet
  facet normal -1.7678e-16 -0.0980176 0.995185
    outer loop
      vertex 25 -35 -8.7
      vertex 35 -35 -8.7
      vertex 25 -34.4733 -8.64812
    endloop
  endfacet
  facet normal -1.76162e-16 0.0980176 0.995185
    outer loop
      vertex 35 -35.5267 -8.64812
      vertex 35 -35 -8.7
      vertex 25 -35 -8.7
    endloop
  endfacet
  facet normal -1.7678e-16 0.0980176 0.995185
    outer loop
      vertex 25 -35.5267 -8.64812
      vertex 35 -35.5267 -8.64812
      vertex 25 -35 -8.7
    endloop
  endfacet
  facet normal -1.67969e-16 0.290284 0.956941
    outer loop
      vertex 35 -36.0332 -8.49447
      vertex 35 -35.5267 -8.64812
      vertex 25 -35.5267 -8.64812
    endloop
  endfacet
  facet normal -1.69987e-16 0.290284 0.956941
    outer loop
      vertex 25 -36.0332 -8.49447
      vertex 35 -36.0332 -8.49447
      vertex 25 -35.5267 -8.64812
    endloop
  endfacet
  facet normal -1.59775e-16 0.471397 0.881921
    outer loop
      vertex 35 -36.5 -8.24497
      vertex 35 -36.0332 -8.49447
      vertex 25 -36.0332 -8.49447
    endloop
  endfacet
  facet normal -3.13321e-16 0.471397 0.881921
    outer loop
      vertex 25 -36.5 -8.24497
      vertex 35 -36.5 -8.24497
      vertex 25 -36.0332 -8.49447
    endloop
  endfacet
  facet normal -2.74486e-16 0.634394 0.77301
    outer loop
      vertex 35 -36.9092 -7.90919
      vertex 35 -36.5 -8.24497
      vertex 25 -36.5 -8.24497
    endloop
  endfacet
  facet normal -1.37314e-16 0.634394 0.77301
    outer loop
      vertex 25 -36.9092 -7.90919
      vertex 35 -36.9092 -7.90919
      vertex 25 -36.5 -8.24497
    endloop
  endfacet
  facet normal -1.12691e-16 0.77301 0.634394
    outer loop
      vertex 35 -36.9092 -7.90919
      vertex 25 -36.9092 -7.90919
      vertex 35 -37.245 -7.50004
    endloop
  endfacet
  facet normal -1.12691e-16 0.77301 0.634394
    outer loop
      vertex 35 -37.245 -7.50004
      vertex 25 -36.9092 -7.90919
      vertex 25 -37.245 -7.50004
    endloop
  endfacet
  facet normal -8.37368e-17 0.881921 0.471397
    outer loop
      vertex 35 -37.245 -7.50004
      vertex 25 -37.245 -7.50004
      vertex 35 -37.4945 -7.03324
    endloop
  endfacet
  facet normal -1.25605e-16 0.881921 0.471397
    outer loop
      vertex 35 -37.4945 -7.03324
      vertex 25 -37.245 -7.50004
      vertex 25 -37.4945 -7.03324
    endloop
  endfacet
  facet normal -7.73472e-17 0.956941 0.290284
    outer loop
      vertex 35 -37.4945 -7.03324
      vertex 25 -37.4945 -7.03324
      vertex 35 -37.6481 -6.52674
    endloop
  endfacet
  facet normal -7.73472e-17 0.956941 0.290284
    outer loop
      vertex 35 -37.6481 -6.52674
      vertex 25 -37.4945 -7.03324
      vertex 25 -37.6481 -6.52674
    endloop
  endfacet
  facet normal -2.61171e-17 0.995185 0.0980176
    outer loop
      vertex 35 -37.6481 -6.52674
      vertex 25 -37.6481 -6.52674
      vertex 35 -37.7 -6
    endloop
  endfacet
  facet normal -2.61171e-17 0.995185 0.0980176
    outer loop
      vertex 35 -37.7 -6
      vertex 25 -37.6481 -6.52674
      vertex 25 -37.7 -6
    endloop
  endfacet
  facet normal 0 0 1
    outer loop
      vertex 36.75 -28.25 -11.49
      vertex 36.75 28.25 -11.49
      vertex -36.75 28.25 -11.49
    endloop
  endfacet
  facet normal 0 0 1
    outer loop
      vertex -36.75 -28.25 -11.49
      vertex 36.75 -28.25 -11.49
      vertex -36.75 28.25 -11.49
    endloop
  endfacet
endsolid OpenSCAD_Model
